<mxfile host="app.diagrams.net" modified="2023-05-19T20:44:00.716Z" agent="Mozilla/5.0 (Windows NT 10.0; Win64; x64) AppleWebKit/537.36 (KHTML, like Gecko) Chrome/113.0.0.0 Safari/537.36" etag="kc3C9iaKzxYZKfXunv3h" version="21.3.2" type="device">
  <diagram id="R2lEEEUBdFMjLlhIrx00" name="Page-1">
    <mxGraphModel dx="-122" dy="1815" grid="1" gridSize="10" guides="1" tooltips="1" connect="1" arrows="1" fold="1" page="1" pageScale="1" pageWidth="850" pageHeight="1100" math="0" shadow="0" extFonts="Permanent Marker^https://fonts.googleapis.com/css?family=Permanent+Marker">
      <root>
        <mxCell id="0" />
        <mxCell id="1" parent="0" />
        <mxCell id="4Ub9C3ndQN_oUR5pC65u-53" style="edgeStyle=orthogonalEdgeStyle;rounded=0;orthogonalLoop=1;jettySize=auto;html=1;entryX=0.5;entryY=0.385;entryDx=0;entryDy=0;entryPerimeter=0;" edge="1" parent="1">
          <mxGeometry relative="1" as="geometry">
            <mxPoint x="2880" y="-339" as="sourcePoint" />
            <mxPoint x="2880" y="-338.9499999999998" as="targetPoint" />
          </mxGeometry>
        </mxCell>
        <mxCell id="4Ub9C3ndQN_oUR5pC65u-34" value="User" style="swimlane;childLayout=stackLayout;horizontal=1;startSize=50;horizontalStack=0;rounded=1;fontSize=14;fontStyle=0;strokeWidth=2;resizeParent=0;resizeLast=1;shadow=0;dashed=0;align=center;arcSize=4;whiteSpace=wrap;html=1;" vertex="1" parent="1">
          <mxGeometry x="2540" y="-840" width="160" height="140" as="geometry" />
        </mxCell>
        <mxCell id="4Ub9C3ndQN_oUR5pC65u-35" value="Email&amp;nbsp; &amp;nbsp; &amp;nbsp; &amp;nbsp; &amp;nbsp; &amp;nbsp; text&lt;br&gt;Password&amp;nbsp; &amp;nbsp; &amp;nbsp;text&lt;br&gt;Phone&amp;nbsp; &amp;nbsp; &amp;nbsp; &amp;nbsp; &amp;nbsp; &amp;nbsp;int&lt;br&gt;Fname&amp;nbsp; &amp;nbsp; &amp;nbsp; &amp;nbsp; &amp;nbsp; text&lt;br&gt;Lname&amp;nbsp; &amp;nbsp; &amp;nbsp; &amp;nbsp; &amp;nbsp; text" style="align=left;strokeColor=none;fillColor=none;spacingLeft=4;fontSize=12;verticalAlign=top;resizable=0;rotatable=0;part=1;html=1;" vertex="1" parent="4Ub9C3ndQN_oUR5pC65u-34">
          <mxGeometry y="50" width="160" height="90" as="geometry" />
        </mxCell>
        <mxCell id="4Ub9C3ndQN_oUR5pC65u-37" value="Ticket" style="swimlane;childLayout=stackLayout;horizontal=1;startSize=50;horizontalStack=0;rounded=1;fontSize=14;fontStyle=0;strokeWidth=2;resizeParent=0;resizeLast=1;shadow=0;dashed=0;align=center;arcSize=4;whiteSpace=wrap;html=1;" vertex="1" parent="1">
          <mxGeometry x="2760" y="-344.62" width="180" height="140" as="geometry" />
        </mxCell>
        <mxCell id="4Ub9C3ndQN_oUR5pC65u-38" value="&lt;u&gt;TicketID&lt;/u&gt;&amp;nbsp; &amp;nbsp; &amp;nbsp; &amp;nbsp; &amp;nbsp;&lt;u&gt;int&lt;/u&gt;&amp;nbsp; &amp;nbsp; &amp;nbsp; &amp;nbsp; &amp;nbsp; &amp;nbsp; &amp;nbsp; &lt;u&gt;&amp;lt;pk&amp;gt;&lt;/u&gt;&amp;nbsp; &amp;nbsp; &amp;nbsp; &amp;nbsp; &amp;nbsp;&lt;br&gt;CustomerID&amp;nbsp; &amp;nbsp;int&amp;nbsp; &amp;nbsp; &amp;nbsp; &amp;nbsp; &amp;nbsp; &amp;nbsp; &amp;nbsp; &amp;lt;fk&amp;gt;&lt;br&gt;SeatID&amp;nbsp; &amp;nbsp; &amp;nbsp; &amp;nbsp; &amp;nbsp; &amp;nbsp;int&amp;nbsp; &amp;nbsp; &amp;nbsp; &amp;nbsp; &amp;nbsp; &amp;nbsp; &amp;nbsp; &amp;lt;fk&amp;gt;&lt;br&gt;TripID&amp;nbsp; &amp;nbsp; &amp;nbsp; &amp;nbsp; &amp;nbsp; &amp;nbsp; int&amp;nbsp; &amp;nbsp; &amp;nbsp; &amp;nbsp; &amp;nbsp; &amp;nbsp; &amp;nbsp; &amp;lt;fk&amp;gt;&lt;br&gt;Price&amp;nbsp; &amp;nbsp; &amp;nbsp; &amp;nbsp; &amp;nbsp; &amp;nbsp; &amp;nbsp;double&amp;nbsp;" style="align=left;strokeColor=none;fillColor=none;spacingLeft=4;fontSize=12;verticalAlign=top;resizable=0;rotatable=0;part=1;html=1;" vertex="1" parent="4Ub9C3ndQN_oUR5pC65u-37">
          <mxGeometry y="50" width="180" height="90" as="geometry" />
        </mxCell>
        <mxCell id="4Ub9C3ndQN_oUR5pC65u-40" value="Trip" style="swimlane;childLayout=stackLayout;horizontal=1;startSize=50;horizontalStack=0;rounded=1;fontSize=14;fontStyle=0;strokeWidth=2;resizeParent=0;resizeLast=1;shadow=0;dashed=0;align=center;arcSize=4;whiteSpace=wrap;html=1;" vertex="1" parent="1">
          <mxGeometry x="2770" width="160" height="133" as="geometry" />
        </mxCell>
        <mxCell id="4Ub9C3ndQN_oUR5pC65u-41" value="&lt;u&gt;TripID&lt;/u&gt;&amp;nbsp; &amp;nbsp; &amp;nbsp; &amp;nbsp; &amp;nbsp; &amp;nbsp;&lt;u&gt;int&lt;/u&gt;&amp;nbsp; &amp;nbsp; &amp;nbsp; &amp;nbsp; &amp;nbsp; &amp;nbsp; &amp;nbsp;&lt;u&gt;&amp;lt;pk&amp;gt;&lt;/u&gt;&lt;br&gt;TrainID&amp;nbsp; &amp;nbsp; &amp;nbsp; &amp;nbsp; &amp;nbsp;int&amp;nbsp; &amp;nbsp; &amp;nbsp; &amp;nbsp; &amp;nbsp; &amp;nbsp; &amp;nbsp;&amp;lt;fk&amp;gt;&lt;br&gt;Date&amp;nbsp; &amp;nbsp; &amp;nbsp; &amp;nbsp; &amp;nbsp; &amp;nbsp; datetime&amp;nbsp;&lt;br&gt;Source&amp;nbsp; &amp;nbsp; &amp;nbsp; &amp;nbsp; &amp;nbsp;text&lt;br&gt;Destination&amp;nbsp; &amp;nbsp;text" style="align=left;strokeColor=none;fillColor=none;spacingLeft=4;fontSize=12;verticalAlign=top;resizable=0;rotatable=0;part=1;html=1;" vertex="1" parent="4Ub9C3ndQN_oUR5pC65u-40">
          <mxGeometry y="50" width="160" height="83" as="geometry" />
        </mxCell>
        <mxCell id="4Ub9C3ndQN_oUR5pC65u-44" value="Train" style="swimlane;childLayout=stackLayout;horizontal=1;startSize=50;horizontalStack=0;rounded=1;fontSize=14;fontStyle=0;strokeWidth=2;resizeParent=0;resizeLast=1;shadow=0;dashed=0;align=center;arcSize=4;whiteSpace=wrap;html=1;" vertex="1" parent="1">
          <mxGeometry x="2310" width="160" height="90" as="geometry" />
        </mxCell>
        <mxCell id="4Ub9C3ndQN_oUR5pC65u-45" value="&lt;u&gt;TrainID&lt;/u&gt;&amp;nbsp; &amp;nbsp; &amp;nbsp; &amp;nbsp; &amp;nbsp;&lt;u&gt;int&lt;/u&gt;&amp;nbsp; &amp;nbsp; &amp;nbsp; &amp;nbsp; &amp;nbsp; &amp;nbsp; &amp;nbsp;&lt;u&gt;&amp;lt;pk&amp;gt;&lt;/u&gt;&lt;br&gt;Model&amp;nbsp; &amp;nbsp; &amp;nbsp; &amp;nbsp; &amp;nbsp; &amp;nbsp;text&amp;nbsp;&amp;nbsp;" style="align=left;strokeColor=none;fillColor=none;spacingLeft=4;fontSize=12;verticalAlign=top;resizable=0;rotatable=0;part=1;html=1;" vertex="1" parent="4Ub9C3ndQN_oUR5pC65u-44">
          <mxGeometry y="50" width="160" height="40" as="geometry" />
        </mxCell>
        <mxCell id="4Ub9C3ndQN_oUR5pC65u-47" value="Seat" style="swimlane;childLayout=stackLayout;horizontal=1;startSize=50;horizontalStack=0;rounded=1;fontSize=14;fontStyle=0;strokeWidth=2;resizeParent=0;resizeLast=1;shadow=0;dashed=0;align=center;arcSize=4;whiteSpace=wrap;html=1;" vertex="1" parent="1">
          <mxGeometry x="2310" y="-342" width="160" height="113" as="geometry" />
        </mxCell>
        <mxCell id="4Ub9C3ndQN_oUR5pC65u-48" value="&lt;u&gt;SeatNO&lt;/u&gt;&amp;nbsp; &amp;nbsp; &amp;nbsp; &amp;nbsp;&lt;u&gt;int&lt;/u&gt;&amp;nbsp; &amp;nbsp; &amp;nbsp; &amp;nbsp; &amp;nbsp; &amp;nbsp; &amp;nbsp; &lt;u&gt;&amp;lt;pk&amp;gt;&lt;/u&gt;&lt;br&gt;TrainID&amp;nbsp; &amp;nbsp; &amp;nbsp; &amp;nbsp; int&amp;nbsp; &amp;nbsp; &amp;nbsp; &amp;nbsp; &amp;nbsp; &amp;nbsp; &amp;nbsp; &amp;lt;fk&amp;gt;&lt;br&gt;SeatType&amp;nbsp; &amp;nbsp; text&amp;nbsp; &amp;nbsp; &amp;nbsp;" style="align=left;strokeColor=none;fillColor=none;spacingLeft=4;fontSize=12;verticalAlign=top;resizable=0;rotatable=0;part=1;html=1;" vertex="1" parent="4Ub9C3ndQN_oUR5pC65u-47">
          <mxGeometry y="50" width="160" height="63" as="geometry" />
        </mxCell>
        <mxCell id="4Ub9C3ndQN_oUR5pC65u-49" value="Customer" style="swimlane;childLayout=stackLayout;horizontal=1;startSize=50;horizontalStack=0;rounded=1;fontSize=14;fontStyle=0;strokeWidth=2;resizeParent=0;resizeLast=1;shadow=0;dashed=0;align=center;arcSize=4;whiteSpace=wrap;html=1;" vertex="1" parent="1">
          <mxGeometry x="2770" y="-592.25" width="160" height="82.25" as="geometry" />
        </mxCell>
        <mxCell id="4Ub9C3ndQN_oUR5pC65u-50" value="&lt;u&gt;CustomerID&lt;/u&gt;&amp;nbsp; &amp;nbsp; &lt;u&gt;int&lt;/u&gt;&amp;nbsp; &amp;nbsp; &amp;nbsp; &amp;nbsp; &amp;nbsp; &amp;nbsp;&lt;u&gt;&amp;lt;pk&amp;gt;&lt;/u&gt;" style="align=left;strokeColor=none;fillColor=none;spacingLeft=4;fontSize=12;verticalAlign=top;resizable=0;rotatable=0;part=1;html=1;" vertex="1" parent="4Ub9C3ndQN_oUR5pC65u-49">
          <mxGeometry y="50" width="160" height="32.25" as="geometry" />
        </mxCell>
        <mxCell id="4Ub9C3ndQN_oUR5pC65u-54" value="Admin" style="swimlane;childLayout=stackLayout;horizontal=1;startSize=50;horizontalStack=0;rounded=1;fontSize=14;fontStyle=0;strokeWidth=2;resizeParent=0;resizeLast=1;shadow=0;dashed=0;align=center;arcSize=4;whiteSpace=wrap;html=1;" vertex="1" parent="1">
          <mxGeometry x="2310" y="-590" width="160" height="80" as="geometry" />
        </mxCell>
        <mxCell id="4Ub9C3ndQN_oUR5pC65u-55" value="&lt;u&gt;AdminID&lt;/u&gt;&amp;nbsp; &amp;nbsp; &amp;nbsp; &amp;nbsp;&lt;u&gt;int&lt;/u&gt;&amp;nbsp; &amp;nbsp; &amp;nbsp; &amp;nbsp; &amp;nbsp; &amp;nbsp; &amp;nbsp;&lt;u&gt;&amp;lt;pk&amp;gt;&lt;/u&gt;" style="align=left;strokeColor=none;fillColor=none;spacingLeft=4;fontSize=12;verticalAlign=top;resizable=0;rotatable=0;part=1;html=1;" vertex="1" parent="4Ub9C3ndQN_oUR5pC65u-54">
          <mxGeometry y="50" width="160" height="30" as="geometry" />
        </mxCell>
        <mxCell id="4Ub9C3ndQN_oUR5pC65u-82" value="" style="endArrow=none;html=1;rounded=0;exitX=0.5;exitY=0;exitDx=0;exitDy=0;" edge="1" parent="1" source="4Ub9C3ndQN_oUR5pC65u-85">
          <mxGeometry relative="1" as="geometry">
            <mxPoint x="2650" y="-400" as="sourcePoint" />
            <mxPoint x="2850" y="-510" as="targetPoint" />
          </mxGeometry>
        </mxCell>
        <mxCell id="4Ub9C3ndQN_oUR5pC65u-83" value="1" style="text;html=1;align=center;verticalAlign=middle;resizable=0;points=[];autosize=1;strokeColor=none;fillColor=none;" vertex="1" parent="1">
          <mxGeometry x="2825" y="-512" width="30" height="30" as="geometry" />
        </mxCell>
        <mxCell id="4Ub9C3ndQN_oUR5pC65u-84" value="M" style="text;html=1;align=center;verticalAlign=middle;resizable=0;points=[];autosize=1;strokeColor=none;fillColor=none;" vertex="1" parent="1">
          <mxGeometry x="2825" y="-372" width="30" height="30" as="geometry" />
        </mxCell>
        <mxCell id="4Ub9C3ndQN_oUR5pC65u-87" value="" style="endArrow=none;html=1;rounded=0;exitX=0.5;exitY=0;exitDx=0;exitDy=0;" edge="1" parent="1" source="4Ub9C3ndQN_oUR5pC65u-37" target="4Ub9C3ndQN_oUR5pC65u-85">
          <mxGeometry relative="1" as="geometry">
            <mxPoint x="2850" y="-345" as="sourcePoint" />
            <mxPoint x="2850" y="-510" as="targetPoint" />
          </mxGeometry>
        </mxCell>
        <mxCell id="4Ub9C3ndQN_oUR5pC65u-85" value="Books" style="shape=rhombus;perimeter=rhombusPerimeter;whiteSpace=wrap;html=1;align=center;" vertex="1" parent="1">
          <mxGeometry x="2820" y="-460" width="60" height="40" as="geometry" />
        </mxCell>
        <mxCell id="4Ub9C3ndQN_oUR5pC65u-89" value="" style="endArrow=none;html=1;rounded=0;exitX=0.5;exitY=1;exitDx=0;exitDy=0;entryX=0.5;entryY=0;entryDx=0;entryDy=0;" edge="1" parent="1" source="4Ub9C3ndQN_oUR5pC65u-48" target="4Ub9C3ndQN_oUR5pC65u-44">
          <mxGeometry relative="1" as="geometry">
            <mxPoint x="2550" y="-260" as="sourcePoint" />
            <mxPoint x="2710" y="-260" as="targetPoint" />
          </mxGeometry>
        </mxCell>
        <mxCell id="4Ub9C3ndQN_oUR5pC65u-90" value="Belongs To" style="shape=rhombus;perimeter=rhombusPerimeter;whiteSpace=wrap;html=1;align=center;" vertex="1" parent="1">
          <mxGeometry x="2340" y="-140" width="100" height="60" as="geometry" />
        </mxCell>
        <mxCell id="4Ub9C3ndQN_oUR5pC65u-91" value="1" style="text;html=1;align=center;verticalAlign=middle;resizable=0;points=[];autosize=1;strokeColor=none;fillColor=none;" vertex="1" parent="1">
          <mxGeometry x="2355" y="-30" width="30" height="30" as="geometry" />
        </mxCell>
        <mxCell id="4Ub9C3ndQN_oUR5pC65u-93" value="M" style="text;html=1;align=center;verticalAlign=middle;resizable=0;points=[];autosize=1;strokeColor=none;fillColor=none;" vertex="1" parent="1">
          <mxGeometry x="2355" y="-232" width="30" height="30" as="geometry" />
        </mxCell>
        <mxCell id="4Ub9C3ndQN_oUR5pC65u-94" value="" style="endArrow=none;html=1;rounded=0;entryX=0.5;entryY=1;entryDx=0;entryDy=0;exitX=0.5;exitY=0;exitDx=0;exitDy=0;" edge="1" parent="1" source="4Ub9C3ndQN_oUR5pC65u-40" target="4Ub9C3ndQN_oUR5pC65u-38">
          <mxGeometry relative="1" as="geometry">
            <mxPoint x="2700" y="-200" as="sourcePoint" />
            <mxPoint x="2860" y="-200" as="targetPoint" />
          </mxGeometry>
        </mxCell>
        <mxCell id="4Ub9C3ndQN_oUR5pC65u-95" value="Assigned To" style="shape=rhombus;perimeter=rhombusPerimeter;whiteSpace=wrap;html=1;align=center;" vertex="1" parent="1">
          <mxGeometry x="2800" y="-140" width="100" height="60" as="geometry" />
        </mxCell>
        <mxCell id="4Ub9C3ndQN_oUR5pC65u-101" value="" style="endArrow=none;html=1;rounded=0;exitX=1;exitY=0.19;exitDx=0;exitDy=0;exitPerimeter=0;" edge="1" parent="1" source="4Ub9C3ndQN_oUR5pC65u-48">
          <mxGeometry relative="1" as="geometry">
            <mxPoint x="2700" y="-200" as="sourcePoint" />
            <mxPoint x="2760" y="-280" as="targetPoint" />
          </mxGeometry>
        </mxCell>
        <mxCell id="4Ub9C3ndQN_oUR5pC65u-102" value="Associated&lt;br&gt;With" style="shape=rhombus;perimeter=rhombusPerimeter;whiteSpace=wrap;html=1;align=center;" vertex="1" parent="1">
          <mxGeometry x="2580" y="-310" width="100" height="58.13" as="geometry" />
        </mxCell>
        <mxCell id="4Ub9C3ndQN_oUR5pC65u-105" value="1" style="text;html=1;align=center;verticalAlign=middle;resizable=0;points=[];autosize=1;strokeColor=none;fillColor=none;" vertex="1" parent="1">
          <mxGeometry x="2825" y="-32" width="30" height="30" as="geometry" />
        </mxCell>
        <mxCell id="4Ub9C3ndQN_oUR5pC65u-106" value="M" style="text;html=1;align=center;verticalAlign=middle;resizable=0;points=[];autosize=1;strokeColor=none;fillColor=none;" vertex="1" parent="1">
          <mxGeometry x="2825" y="-212" width="30" height="30" as="geometry" />
        </mxCell>
        <mxCell id="4Ub9C3ndQN_oUR5pC65u-107" value="1" style="text;html=1;align=center;verticalAlign=middle;resizable=0;points=[];autosize=1;strokeColor=none;fillColor=none;" vertex="1" parent="1">
          <mxGeometry x="2475" y="-312" width="30" height="30" as="geometry" />
        </mxCell>
        <mxCell id="4Ub9C3ndQN_oUR5pC65u-108" value="M" style="text;html=1;align=center;verticalAlign=middle;resizable=0;points=[];autosize=1;strokeColor=none;fillColor=none;" vertex="1" parent="1">
          <mxGeometry x="2735" y="-312" width="30" height="30" as="geometry" />
        </mxCell>
        <mxCell id="4Ub9C3ndQN_oUR5pC65u-110" value="" style="endArrow=none;html=1;rounded=0;exitX=1;exitY=0;exitDx=0;exitDy=0;entryX=-0.006;entryY=0.374;entryDx=0;entryDy=0;entryPerimeter=0;" edge="1" parent="1" source="4Ub9C3ndQN_oUR5pC65u-45" target="4Ub9C3ndQN_oUR5pC65u-40">
          <mxGeometry relative="1" as="geometry">
            <mxPoint x="2700" y="-40" as="sourcePoint" />
            <mxPoint x="2860" y="-40" as="targetPoint" />
          </mxGeometry>
        </mxCell>
        <mxCell id="4Ub9C3ndQN_oUR5pC65u-111" value="1" style="text;html=1;align=center;verticalAlign=middle;resizable=0;points=[];autosize=1;strokeColor=none;fillColor=none;" vertex="1" parent="1">
          <mxGeometry x="2465" y="28" width="30" height="30" as="geometry" />
        </mxCell>
        <mxCell id="4Ub9C3ndQN_oUR5pC65u-112" value="M" style="text;html=1;align=center;verticalAlign=middle;resizable=0;points=[];autosize=1;strokeColor=none;fillColor=none;" vertex="1" parent="1">
          <mxGeometry x="2745" y="28" width="30" height="30" as="geometry" />
        </mxCell>
        <mxCell id="4Ub9C3ndQN_oUR5pC65u-113" value="Assigned To" style="shape=rhombus;perimeter=rhombusPerimeter;whiteSpace=wrap;html=1;align=center;" vertex="1" parent="1">
          <mxGeometry x="2581" y="20" width="100" height="60" as="geometry" />
        </mxCell>
        <mxCell id="4Ub9C3ndQN_oUR5pC65u-115" style="edgeStyle=orthogonalEdgeStyle;rounded=0;orthogonalLoop=1;jettySize=auto;html=1;entryX=0.5;entryY=1;entryDx=0;entryDy=0;" edge="1" parent="1" source="4Ub9C3ndQN_oUR5pC65u-50" target="4Ub9C3ndQN_oUR5pC65u-35">
          <mxGeometry relative="1" as="geometry">
            <Array as="points">
              <mxPoint x="2620" y="-530" />
            </Array>
          </mxGeometry>
        </mxCell>
        <mxCell id="4Ub9C3ndQN_oUR5pC65u-116" style="edgeStyle=orthogonalEdgeStyle;rounded=0;orthogonalLoop=1;jettySize=auto;html=1;" edge="1" parent="1" source="4Ub9C3ndQN_oUR5pC65u-55">
          <mxGeometry relative="1" as="geometry">
            <mxPoint x="2620" y="-700" as="targetPoint" />
            <Array as="points">
              <mxPoint x="2621" y="-530" />
              <mxPoint x="2621" y="-700" />
            </Array>
          </mxGeometry>
        </mxCell>
        <mxCell id="4Ub9C3ndQN_oUR5pC65u-119" value="Is A" style="shape=rhombus;perimeter=rhombusPerimeter;whiteSpace=wrap;html=1;align=center;" vertex="1" parent="1">
          <mxGeometry x="2560" y="-630" width="120" height="60" as="geometry" />
        </mxCell>
      </root>
    </mxGraphModel>
  </diagram>
</mxfile>
